<svg width="165" height="32" viewBox="0 0 165 32" fill="none" xmlns="http://www.w3.org/2000/svg">
<path d="M57.4971 22.3854C57.4971 23.7512 57.3266 25.0079 56.9876 26.1533C56.6465 27.3008 55.7486 28.3247 54.2918 29.2271C52.835 30.1294 51.0987 30.5806 49.0851 30.5806C46.7304 30.5806 44.9202 30.0738 43.6586 29.0623C42.3949 28.0507 41.5833 27.0804 41.2197 26.1533C40.856 25.2263 40.6731 23.9717 40.6731 22.3854V12.0682H45.9167V21.8806V23.4175C46.0893 24.1015 46.4571 24.6495 47.0222 25.0656C47.5872 25.4817 48.2612 25.6878 49.0481 25.6878C50.0056 25.6878 50.7309 25.4447 51.222 24.9564C51.7131 24.4682 52.0069 24.0541 52.1055 23.7121C52.2042 23.3701 52.2535 22.7603 52.2535 21.8806V12.0682H57.4971V22.3854Z" fill="#5752DA"/>
<path d="M73.7766 12.0682H79.0203V29.9955H73.7766V27.6943C72.6589 29.569 70.863 30.5064 68.3871 30.5064C65.9831 30.5064 64.0106 29.6247 62.4695 27.8591C60.9285 26.0936 60.158 23.8378 60.158 21.0854C60.158 18.4073 60.9408 16.1617 62.5065 14.3488C64.0722 12.5359 66.0201 11.6294 68.3522 11.6294C70.2692 11.6294 71.8473 12.2495 73.0863 13.4918L73.7787 14.5136V12.0682H73.7766ZM65.2187 21.0669C65.2187 22.5564 65.6317 23.778 66.4577 24.7319C67.2837 25.6836 68.3624 26.1616 69.698 26.1616C71.0089 26.1616 72.0774 25.6857 72.9034 24.7319C73.7294 23.7801 74.1424 22.5584 74.1424 21.0669C74.1424 19.6248 73.7047 18.4155 72.8315 17.439C71.9582 16.4625 70.8774 15.9742 69.5912 15.9742C68.3522 15.9742 67.3145 16.4563 66.4783 17.4225C65.6379 18.3867 65.2187 19.6021 65.2187 21.0669Z" fill="#5752DA"/>
<path d="M82.3346 12.0682H87.5782V14.697C88.0878 13.6999 88.8275 12.9314 89.7994 12.3958C90.7692 11.8602 91.887 11.5923 93.1506 11.5923C95.0923 11.5923 96.471 12.0621 97.2847 12.9974C98.0984 13.9347 98.5956 14.7814 98.7785 15.5354C98.9614 16.2894 99.0518 17.3236 99.0518 18.638V29.9934H93.8081V19.9276V18.2795C93.6848 17.5956 93.3602 17.0352 92.8321 16.5964C92.3041 16.1576 91.6712 15.9372 90.9336 15.9372C89.8775 15.9372 89.0535 16.3286 88.4638 17.1094C87.8741 17.8902 87.5803 18.9882 87.5803 20.4035V29.9955H82.3367V12.0682H82.3346Z" fill="#5752DA"/>
<path d="M100.324 12.0682H102.982V7.07242H108.189V12.0682H112.596V16.413H108.189V23.059V24.4826C108.36 25.6754 109.12 26.2708 110.468 26.2708C110.981 26.2708 111.594 26.1616 112.305 25.9432L113.032 29.8142C111.479 30.253 110.081 30.4714 108.844 30.4714C106.782 30.4714 105.36 29.9914 104.583 29.0293C103.806 28.0672 103.344 27.3008 103.198 26.7281C103.052 26.1554 102.98 25.2263 102.98 23.9346V16.413H100.322V12.0682H100.324Z" fill="#5752DA"/>
<path d="M113.981 12.0682H119.225V15.0987C119.539 13.98 120.123 13.1148 120.974 12.507C121.822 11.8993 122.903 11.5944 124.214 11.5944C124.528 11.5944 124.801 11.6068 125.034 11.6315C125.264 11.6562 125.574 11.718 125.962 11.8148L125.015 16.891C124.36 16.72 123.741 16.6355 123.158 16.6355C121.894 16.6355 120.99 16.9652 120.445 17.6223C119.899 18.2795 119.56 18.846 119.426 19.3199C119.293 19.7937 119.227 20.4468 119.227 21.2729V29.9996H113.983V12.0682H113.981Z" fill="#5752DA"/>
<path d="M131.06 22.6923C131.253 23.9449 131.746 24.9337 132.535 25.6589C133.324 26.3841 134.29 26.7467 135.431 26.7467C136.279 26.7467 137.148 26.4912 138.034 25.9803C138.919 25.4694 139.643 24.7998 140.202 23.9717L143.917 26.5283C142.752 27.9642 141.513 28.9984 140.202 29.6308C138.891 30.2633 137.313 30.5806 135.468 30.5806C132.628 30.5806 130.327 29.7215 128.566 28.0013C126.805 26.2811 125.925 24.0438 125.925 21.2873C125.925 18.5061 126.811 16.1906 128.584 14.3364C130.355 12.4823 132.601 11.5553 135.322 11.5553C138.04 11.5553 140.251 12.4555 141.95 14.2582C143.649 16.0608 144.5 18.4196 144.5 21.3409L144.463 22.6923H131.06ZM131.06 19.2972H139.326C139.18 18.0797 138.749 17.1197 138.034 16.4131C137.317 15.7064 136.4 15.3541 135.285 15.3541C132.977 15.3541 131.57 16.6685 131.06 19.2972Z" fill="#5752DA"/>
<path d="M151.562 22.6923C151.755 23.9449 152.248 24.9337 153.037 25.6589C153.826 26.3841 154.792 26.7467 155.932 26.7467C156.781 26.7467 157.65 26.4912 158.536 25.9803C159.421 25.4694 160.145 24.7998 160.704 23.9717L164.418 26.5283C163.253 27.9642 162.014 28.9984 160.704 29.6308C159.393 30.2633 157.815 30.5806 155.969 30.5806C153.13 30.5806 150.829 29.7215 149.068 28.0013C147.307 26.2811 146.427 24.0438 146.427 21.2873C146.427 18.5061 147.313 16.1906 149.086 14.3364C150.857 12.4823 153.103 11.5553 155.824 11.5553C158.542 11.5553 160.753 12.4555 162.452 14.2582C164.151 16.0608 165.002 18.4196 165.002 21.3409L164.965 22.6923H151.562ZM151.562 19.2972H159.828C159.682 18.0797 159.251 17.1197 158.536 16.4131C157.819 15.7064 156.902 15.3541 155.787 15.3541C153.479 15.3541 152.072 16.6685 151.562 19.2972Z" fill="#5752DA"/>
<path d="M31.77 16.2131C31.7536 16.551 31.7187 16.895 31.6694 17.2329C31.6694 17.2329 31.6632 17.2329 31.6632 17.2391C31.579 18.1126 31.4433 18.9819 31.2255 19.839C30.8721 21.2316 30.3379 22.546 29.6557 23.7532C28.6325 25.5744 27.2702 27.1648 25.6573 28.4338C25.2525 28.7614 24.8313 29.0663 24.3977 29.3464C22.2053 30.7556 19.6575 31.6353 16.9288 31.8104C16.2651 31.8557 15.6076 31.8619 14.9501 31.833C13.8652 31.7815 12.7845 31.6188 11.716 31.3036C6.64907 29.8141 3.06153 26.6683 1.08078 21.7343C0.589704 20.5209 0.246566 19.2621 0.100681 17.9601C0.0616415 17.6326 0.0328755 17.3071 0 16.9857V15.1975C0.0226019 14.9276 0.0513679 14.6557 0.0678057 14.3858C0.213691 12.3607 0.780793 10.4612 1.71569 8.66893C3.65534 4.96482 6.58537 2.37112 10.5119 0.939328C12.542 0.195621 14.646 -0.0989774 16.8055 0.0308107C19.0945 0.170899 21.2437 0.793059 23.2738 1.85815C22.6553 3.16015 21.856 4.61048 20.8225 6.25034C19.7376 5.72089 18.6116 5.31504 17.4137 5.16259C13.9474 4.73203 10.9106 5.65084 8.36886 8.07561C6.69221 9.67222 5.57445 11.6046 5.19638 13.8831C4.57791 17.6387 5.49431 20.9494 8.24353 23.6667C9.89141 25.2962 11.8372 26.3448 14.1262 26.6786C17.6069 27.1916 20.6787 26.2604 23.2656 23.848C24.8004 22.4162 25.8422 20.6671 26.3415 18.6276C26.4545 18.1702 26.5223 17.7026 26.588 17.235C26.588 17.235 26.6497 16.689 26.6846 15.9556C26.7298 15.2387 26.7524 14.3487 26.6743 13.6318C26.512 12.1835 30.2064 12.1835 30.2064 12.1835L31.4947 12.6676C31.4927 12.6656 31.8543 14.3569 31.77 16.2131Z" fill="#5752DA"/>
<path d="M36.5884 14.5219C36.4528 14.3529 36.3007 14.1922 36.1446 14.0357C34.4844 12.3587 29.0887 6.90967 29.0887 6.90967C29.0887 6.90967 23.2019 12.8593 21.6362 14.4497C21.0157 15.0822 20.8965 15.8465 21.1451 16.6747C21.3794 17.4575 22.0019 18.0529 22.7992 18.2218C23.6087 18.3949 24.3649 18.226 24.9833 17.612C25.3902 17.2083 27.6647 15.0019 28.6387 14.0604C28.8852 13.8193 29.2756 13.8193 29.5263 14.0563C30.529 15.0142 32.9022 17.2865 33.2495 17.6347C33.9172 18.3043 34.7309 18.4299 35.5795 18.158C36.4487 17.8819 36.9397 17.2144 37.1041 16.3142C37.1062 16.308 37.1082 16.2791 37.1103 16.2379C37.1534 15.6199 36.9767 15.0019 36.5884 14.5219Z" fill="#57E190"/>
<path d="M27.6647 21.0813C27.1633 22.9128 25.8442 25.183 24.1614 25.9844L29.1112 32H36.0972L27.6647 21.0813Z" fill="#5752DA"/>
</svg>
